<svg id="Layer_2" data-name="Layer 2" xmlns="http://www.w3.org/2000/svg" width="22" height="22" viewBox="0 0 22 22">
  <g id="invisible_box" data-name="invisible box">
    <rect id="Rectangle_9" data-name="Rectangle 9" width="22" height="22" transform="translate(0)" fill="none"/>
  </g>
  <g id="icons_Q2" data-name="icons Q2" transform="translate(2.75 1.375)">
    <g id="Group_1" data-name="Group 1">
      <path id="Path_1" data-name="Path 1" d="M18.042,3a5.042,5.042,0,1,0,5.042,5.042A5.042,5.042,0,0,0,18.042,3Z" transform="translate(-9.792 -3)" fill="gray"/>
      <path id="Path_2" data-name="Path 2" d="M21.583,36.333H6.917A.917.917,0,0,1,6,35.417v-3.9l.413-.275A14.713,14.713,0,0,1,14.25,29a14.346,14.346,0,0,1,7.837,2.292l.413.229v3.9A.917.917,0,0,1,21.583,36.333ZM7.833,34.5H20.667V32.575a12.6,12.6,0,0,0-6.417-1.742,13.017,13.017,0,0,0-6.417,1.7Z" transform="translate(-6 -17.083)" fill="gray"/>
      <path id="Path_3" data-name="Path 3" d="M21.583,36.333H6.917A.917.917,0,0,1,6,35.417v-3.9l.413-.275A14.713,14.713,0,0,1,14.25,29a14.346,14.346,0,0,1,7.837,2.292l.413.229v3.9A.917.917,0,0,1,21.583,36.333Z" transform="translate(-6 -17.083)" fill="gray"/>
    </g>
  </g>
</svg>
